<svg xmlns="http://www.w3.org/2000/svg" xmlns:xlink="http://www.w3.org/1999/xlink" preserveAspectRatio="xMidYMid" width="4000" height="120" viewBox="0 0 4000 120">
  <defs>
    <style>
      .cls-1 {
        fill: #fff;
        fill-rule: evenodd;
      }
    </style>
  </defs>
  <path d="M4000.000,289.063 L4000.000,31.250 C4159.869,33.374 4337.891,58.594 4337.891,58.594 L4337.201,-0.000 L4000.000,-0.000 L4000.000,-565.437 L4720.719,-565.437 L4720.719,289.063 L4000.000,289.063 ZM3750.000,50.781 C3750.000,50.781 3601.925,78.050 3430.664,80.078 C3232.763,82.422 3007.812,59.570 3007.812,59.570 C3007.812,59.570 2808.917,38.109 2637.695,37.109 C2474.644,36.157 2338.867,55.664 2338.867,55.664 C2338.867,55.664 2161.838,81.055 2000.977,81.055 C1835.250,81.055 1685.547,55.664 1685.547,55.664 C1685.547,55.664 1521.177,22.912 1354.492,22.461 C1162.176,21.940 963.867,53.711 963.867,53.711 C963.867,53.711 805.655,84.304 642.578,85.937 C464.967,87.716 281.250,60.547 281.250,60.547 C281.250,60.547 140.101,31.544 -0.000,31.250 L-0.000,-0.000 L4000.000,-0.000 L4000.000,31.250 C3868.768,29.506 3750.000,50.781 3750.000,50.781 Z" class="cls-1"/>
</svg>
